<svg class="svg-icon" style="width: 1em; height: 1em;vertical-align: middle;fill: currentColor;overflow: hidden;" viewBox="0 0 1024 1024" version="1.1" xmlns="http://www.w3.org/2000/svg"><path d="M333.376 192c15.552-61.952 95.296-121.6 178.624-121.6 83.328 0 163.072 59.648 178.624 121.6h26.133333a170.666667 170.666667 0 0 1 169.472 150.442667l48.362667 405.333333A170.666667 170.666667 0 0 1 765.12 938.666667h-506.24a170.666667 170.666667 0 0 1-169.472-190.890667l48.341333-405.333333A170.666667 170.666667 0 0 1 307.221333 192h26.154667z m68.565333 0h220.117334C604.8 164.288 559.082667 134.4 512 134.4S419.221333 164.288 401.92 192z m-94.72 64a106.666667 106.666667 0 0 0-105.92 94.037333l-48.341333 405.333334A106.666667 106.666667 0 0 0 258.858667 874.666667h506.261333a106.666667 106.666667 0 0 0 105.92-119.296l-48.362667-405.333334A106.666667 106.666667 0 0 0 716.757333 256H307.221333z m5.12 320.789333a32 32 0 0 1 57.962667-27.178666c24.789333 52.864 80.533333 88.256 141.781333 88.256 61.205333 0 116.842667-35.392 141.653334-88.256a32 32 0 0 1 57.941333 27.178666c-35.349333 75.349333-113.578667 125.077333-199.594667 125.077334-86.058667 0-164.394667-49.749333-199.722666-125.077334z" fill="#000000" /></svg>